<svg width="32" height="32" viewBox="0 0 32 32" fill="none" xmlns="http://www.w3.org/2000/svg">
<path d="M11 27.6667L2.31667 30.5617C2.16622 30.6119 2.00597 30.6256 1.84917 30.6017C1.69237 30.5778 1.54351 30.5169 1.41488 30.4241C1.28626 30.3313 1.18155 30.2092 1.10941 30.0679C1.03727 29.9267 0.999769 29.7703 1 29.6117V5.055C1.00004 4.84523 1.06605 4.64079 1.18868 4.4706C1.31132 4.30041 1.48436 4.17309 1.68333 4.10667L11 1M11 27.6667L21 31M11 27.6667V1M11 1L21 4.33333M21 31L30.3167 27.895C30.5159 27.8285 30.6891 27.7009 30.8118 27.5304C30.9345 27.3599 31.0003 27.1551 31 26.945V2.38667C31 2.22819 30.9623 2.072 30.89 1.93095C30.8178 1.78991 30.713 1.66805 30.5844 1.57543C30.4558 1.48281 30.3071 1.42208 30.1504 1.39825C29.9937 1.37441 29.8336 1.38815 29.6833 1.43833L21 4.33333M21 31V4.33333" stroke="white" stroke-width="1.5" stroke-linecap="round" stroke-linejoin="round"/>
</svg>
